<svg xmlns="http://www.w3.org/2000/svg" viewBox="0 0 500 500" width="500" height="500">
  <defs>
    <clipPath id="c">
      <circle cx="250" cy="250" r="245"/>
    </clipPath>
  </defs>

  <circle cx="250" cy="250" r="245" fill="#1a2e35"/>

  <g clip-path="url(#c)">
    <g transform="translate(250,250) scale(0.7985) translate(-422,-529)">
      <path d="M 385.790 406.389 C 381.390 407.988, 370.369 416.713, 366.204 421.896 C 362.100 427.003, 358 435.398, 358 438.695 C 358 441.272, 358.549 440.912, 366.250 433.280 C 370.788 428.783, 375.767 424.631, 377.315 424.052 C 385.724 420.909, 393.502 424.424, 409 438.368 C 415.589 444.296, 421.034 446.948, 426.679 446.978 C 431.369 447.003, 434 445.072, 434 441.606 C 434 439.067, 408.401 413.189, 401.500 408.751 C 396.459 405.509, 390.626 404.632, 385.790 406.389 M 222.750 414.662 C 223.438 414.940, 224 416.268, 224 417.615 C 224 418.961, 224.675 420.322, 225.500 420.638 C 226.325 420.955, 227 422.221, 227 423.452 C 227 424.683, 227.787 426.377, 228.750 427.216 C 231.232 429.381, 252.634 432.198, 276.500 433.500 C 290.526 434.266, 300.827 435.542, 313.962 438.141 C 333.471 442.002, 350.973 439.542, 354.187 432.489 C 357.218 425.836, 351.070 424.493, 297 420.004 C 290.125 419.434, 279.550 418.519, 273.500 417.972 C 230.967 414.127, 219.583 413.384, 222.750 414.662 M 391.546 448.615 C 371.577 452.220, 360.827 456.801, 346.169 467.954 C 331.288 479.276, 320.985 483.614, 303.241 486.027 C 292.298 487.516, 268.739 486.842, 253 484.591 C 247.225 483.766, 234.850 481.965, 225.500 480.591 C 198.816 476.669, 182.671 475, 171.405 475 C 160.333 475, 159.548 475.418, 162.003 480.005 C 163.116 482.085, 164.495 482.329, 184.500 483.993 C 228.392 487.644, 231.659 488.094, 247.500 492.663 C 277.604 501.348, 288.899 503.333, 300.170 501.919 C 318.737 499.591, 334.835 492.909, 353 479.991 C 366.276 470.549, 372.770 467, 376.771 467 C 385.304 467, 398.616 482.502, 395.250 488.518 C 394.759 489.395, 384.479 500.100, 372.405 512.306 C 339.964 545.103, 322.860 566.439, 324.734 571.771 C 325.343 573.505, 330.375 576, 333.263 576 C 336.362 576, 339.938 572.057, 344.365 563.761 C 351.626 550.153, 363.526 533.509, 373.422 523.117 C 380.657 515.519, 395.892 503.454, 401.500 500.880 C 407.165 498.280, 416.873 498.384, 422.200 501.102 C 426.974 503.538, 447.974 515.426, 469.450 527.851 C 486.809 537.894, 494 544.059, 494 548.897 C 494 555.998, 486.382 565.457, 466.787 582.687 C 454.550 593.447, 452.850 595.686, 455.467 597.600 C 457.519 599.100, 483.410 605.482, 493.929 607.081 C 505.116 608.781, 507.258 607.821, 519.382 595.677 C 526.477 588.569, 533.305 580.155, 542.021 567.776 C 548.884 558.028, 555.512 548.624, 556.750 546.878 C 560.075 542.187, 559.659 538.920, 555.144 534.267 C 549.185 528.128, 542.387 523.822, 539.227 524.186 C 537.089 524.432, 535.885 525.648, 533.651 529.817 C 529.913 536.791, 527.752 537.742, 520.852 535.452 C 508.032 531.197, 474.832 514.962, 463.250 507.286 C 454.889 501.744, 455.579 498.906, 469.526 481.439 C 474.229 475.549, 477.904 470.228, 477.693 469.615 C 476.976 467.529, 471.522 468.718, 460.345 473.397 C 440.886 481.543, 419.018 485.811, 410.740 483.079 C 408.755 482.424, 405.527 480.112, 403.566 477.941 C 400.403 474.440, 400 473.383, 400 468.578 C 400 463.474, 400.289 462.845, 405 457.690 C 410.403 451.779, 411.079 449.648, 408.066 448.035 C 405.563 446.696, 401.363 446.843, 391.546 448.615 M 442 451.605 C 419.957 455.135, 415.594 456.252, 412.751 459.096 C 411.238 460.608, 410 462.795, 410 463.955 C 410 467.837, 412.848 472.936, 416.190 475.039 C 421.106 478.133, 432.772 477.358, 443.500 473.225 C 447.900 471.530, 454.661 469.222, 458.525 468.096 C 462.389 466.970, 466.379 465.443, 467.393 464.702 C 469.093 463.459, 469.117 463.129, 467.707 460.428 C 464.610 454.494, 457.818 449.835, 452.685 450.122 C 451.483 450.189, 446.675 450.857, 442 451.605 M 183 452.845 C 183 453.310, 183.875 454.482, 184.944 455.449 C 186.013 456.417, 187.026 458.156, 187.194 459.313 C 187.545 461.729, 190.336 462.432, 216 466.575 C 234.264 469.523, 270.332 471.301, 302 470.815 C 322.381 470.502, 322.528 470.484, 327.250 467.708 C 332.484 464.631, 333.415 461.828, 329.840 459.914 C 328.596 459.248, 319.368 458.410, 308.090 457.938 C 281.509 456.825, 266.134 456.195, 235.500 454.963 C 221.200 454.388, 204.550 453.488, 198.500 452.962 C 184.978 451.788, 183 451.773, 183 452.845 M 507.500 461.664 C 500.451 462.520, 497.977 463.155, 498.486 463.977 C 499.089 464.954, 517.934 469.425, 528 470.981 C 536.842 472.347, 558.702 472.167, 562.904 470.694 C 567.431 469.106, 569.014 466.585, 566.845 464.416 C 565.556 463.127, 561.770 462.621, 548.362 461.945 C 531.557 461.099, 513.198 460.972, 507.500 461.664 M 477.500 479.989 C 472.624 483.200, 463.980 492.232, 463.339 494.784 C 462.391 498.564, 464.392 501.427, 471.165 505.974 C 481.207 512.717, 514.783 528.891, 520.278 529.634 C 525.054 530.279, 525.056 530.278, 530.021 524.890 C 532.753 521.925, 534.990 518.691, 534.994 517.702 C 534.997 516.713, 533.809 514.801, 532.354 513.452 C 527.909 509.332, 521.610 510.412, 513.316 516.717 C 511.093 518.406, 509.133 519.040, 506.824 518.818 C 499.856 518.148, 503.819 512.532, 513.043 510.005 C 518.157 508.604, 521.302 505.433, 519.996 502.993 C 517.957 499.182, 512.103 495.716, 506.854 495.212 C 502.288 494.773, 500.878 495.199, 492.430 499.563 C 487.280 502.223, 482.753 504.086, 482.371 503.704 C 481.241 502.574, 483.702 498.241, 486.523 496.393 C 487.961 495.450, 491.919 493.921, 495.319 492.993 C 500.287 491.637, 501.564 490.873, 501.827 489.098 C 502.257 486.193, 500.842 484.628, 494.511 481.006 C 488.177 477.382, 482.017 477.014, 477.500 479.989 M 527.250 485.706 C 522.778 486.567, 525.198 487.780, 535.750 489.966 C 541.663 491.190, 558.650 495.245, 573.500 498.977 C 600.062 505.651, 609 507.605, 609 506.736 C 609 506.256, 588.339 494.118, 583.500 491.755 C 575.114 487.661, 537.886 483.657, 527.250 485.706 M 181.391 498.425 C 181.053 499.305, 181.073 501.998, 181.434 504.410 C 182.148 509.172, 182.955 509.755, 192 512.046 C 194.475 512.673, 203.475 515.434, 212 518.182 L 227.500 523.177 248.277 524.241 C 278.879 525.807, 290.824 523.856, 291.823 517.126 C 292.080 515.395, 291.263 514.566, 287.823 513.059 C 282.936 510.919, 280.023 510.340, 250 505.548 C 224.135 501.419, 216.067 500.343, 201 499.016 C 194.675 498.459, 187.813 497.738, 185.752 497.414 C 182.867 496.960, 181.863 497.193, 181.391 498.425 M 407.528 508.502 C 405.001 509.402, 401.800 511.919, 398.728 515.421 C 396.072 518.449, 389.852 524.118, 384.905 528.021 C 379.819 532.033, 373.928 537.806, 371.346 541.308 C 366.087 548.442, 356.655 564.188, 354.383 569.626 C 351.350 576.884, 355.534 580.288, 370.398 582.653 C 375.404 583.450, 389.977 586.768, 402.783 590.027 C 427.720 596.373, 440.904 598.743, 445.232 597.657 C 447.323 597.132, 448.173 596.072, 449.017 592.938 C 450.122 588.834, 453.545 584.795, 473.215 564.385 C 478.047 559.371, 482 554.511, 482 553.585 C 482 549.441, 479.052 546.130, 472.835 543.290 C 471.257 542.570, 464.963 549.394, 455.834 561.724 C 450.442 569.007, 444.156 576.323, 441.865 577.983 C 437.538 581.117, 433 581.979, 433 579.666 C 433 578.304, 441.927 568.208, 456.625 552.949 C 466.287 542.919, 467.605 539.777, 463.596 536.329 C 462.107 535.048, 460.290 534, 459.559 534 C 457.513 534, 447.581 545.145, 436.210 560.198 C 424.833 575.261, 423.838 576.313, 421.431 575.833 C 419.508 575.448, 424.418 568.771, 442.203 547.581 C 448.167 540.475, 453.316 533.588, 453.646 532.275 C 454.508 528.841, 450.653 525, 446.344 525 C 441.646 525, 431.458 534.895, 418.246 552.292 C 406.832 567.320, 399 574.284, 399 569.404 C 399 567.209, 400.802 564.826, 417.531 544.899 C 432.852 526.648, 438.265 519.306, 437.690 517.552 C 437.080 515.688, 431.594 515.898, 428.338 517.910 C 424.497 520.283, 415.847 530.323, 400.347 550.399 C 393.934 558.705, 387.319 566.962, 385.647 568.750 C 382.017 572.632, 379 573.057, 379 569.687 C 379 565.406, 396.618 541.342, 412.392 524.078 C 422.257 513.282, 423.370 510.022, 417.851 508.098 C 413.853 506.704, 412.419 506.760, 407.528 508.502 M 557.250 514.662 C 556.563 514.940, 556 516.054, 556 517.140 C 556 519.394, 561.533 522.214, 569.424 523.983 C 587.981 528.142, 636 531.821, 636 529.085 C 636 526.929, 624.945 522.762, 615.616 521.399 C 610.602 520.667, 597.275 518.699, 586 517.025 C 566.286 514.099, 559.939 513.577, 557.250 514.662 M 174.709 521.691 C 173.834 523.159, 175.673 538.901, 176.890 540.368 C 180.316 544.496, 196.670 549.973, 222 555.474 C 231.075 557.445, 246.130 560.898, 255.456 563.147 C 267.104 565.956, 275.588 567.399, 282.554 567.754 C 292.356 568.254, 292.752 568.193, 294.348 565.913 C 296.893 562.280, 296.227 548.257, 292.916 535.750 C 291.984 532.231, 291.683 532, 288.042 532 C 285.908 532, 281.315 532.729, 277.835 533.621 C 272.243 535.053, 269.011 535.110, 250.004 534.111 C 226.919 532.898, 214.990 531.008, 199.815 526.159 C 194.692 524.523, 188.250 522.888, 185.500 522.527 C 182.750 522.167, 179.305 521.649, 177.845 521.377 C 176.385 521.105, 174.974 521.247, 174.709 521.691 M 577.208 538.550 C 580.951 540.582, 589.003 542.521, 606 545.486 C 613.975 546.877, 625.450 549.363, 631.500 551.011 C 647.878 555.473, 669.570 559.925, 671.928 559.309 C 675.934 558.261, 673.895 555, 667 551.428 C 664.863 550.322, 659.020 549.145, 652 548.407 C 634.113 546.528, 612.089 543.269, 595.135 539.992 C 586.620 538.347, 578.494 537.018, 577.077 537.040 L 574.500 537.080 577.208 538.550 M 566.500 548.162 C 565.400 548.768, 563.038 550.642, 561.250 552.328 C 556.542 556.767, 556.829 560.133, 562.250 564.087 C 571.755 571.018, 581.070 574.482, 601.030 578.506 C 608.252 579.962, 617.797 582.242, 622.240 583.572 C 635.808 587.633, 655.770 591.157, 666.209 591.335 C 678.073 591.537, 679.392 590.686, 679.457 582.794 C 679.499 577.721, 679.386 577.509, 675.500 575.363 C 672.836 573.892, 665.488 572.112, 653.500 570.036 C 621.799 564.545, 585.666 555.038, 575.008 549.383 C 569.957 546.704, 569.316 546.612, 566.500 548.162 M 246.519 578.250 C 246.908 581.138, 247.288 583.517, 247.363 583.537 C 251.804 584.744, 276.070 590.552, 282.684 591.991 C 294.919 594.652, 302.758 595.713, 319.500 596.975 C 327.200 597.555, 336.425 598.462, 340 598.989 C 363.254 602.421, 388.960 607.008, 418.838 613.059 C 453.628 620.105, 475.911 624.070, 504 628.213 C 516.752 630.094, 523.489 630.487, 542 630.430 C 563.789 630.363, 564.864 630.265, 576.001 627.312 C 594.323 622.455, 611.009 613.439, 623.450 601.674 C 632.017 593.573, 630.563 590.009, 618.685 589.993 C 611.966 589.984, 600.261 587.144, 581 580.850 C 571.651 577.795, 562.901 575.582, 558.951 575.273 L 552.401 574.760 547.787 579.892 C 545.249 582.715, 538.561 590.756, 532.925 597.762 C 517.262 617.232, 517.521 617, 511.430 617 C 499.941 617, 458.282 611.931, 441.304 608.468 C 414.774 603.056, 382.065 595.430, 368.452 591.483 C 357.107 588.194, 332.047 583.468, 313 581.026 C 289.940 578.069, 248.357 573, 247.163 573 C 246.110 573, 245.968 574.159, 246.519 578.250 M 642.500 596.098 C 641.400 596.754, 636.653 600.555, 631.951 604.545 C 612.764 620.825, 598.317 629.400, 583.735 633.162 C 576.577 635.009, 571.840 635.346, 547.515 635.739 C 525.909 636.089, 518.899 636.518, 516.765 637.622 C 513.494 639.313, 513.354 640.105, 515.916 642.424 C 521.322 647.317, 542.717 650.584, 562.500 649.537 C 596.258 647.750, 658.914 633.286, 670.208 624.672 C 675.775 620.426, 679.855 613.674, 680.927 606.932 C 681.987 600.265, 681.117 598.422, 676.238 596.991 C 670.541 595.319, 644.941 594.642, 642.500 596.098 M 228 598.366 C 228 601.704, 229.435 602.560, 238 604.333 C 242.125 605.187, 249.325 607.055, 254 608.483 C 270.850 613.632, 272.631 614.030, 281.594 614.651 C 293.086 615.447, 298 614.635, 298 611.940 C 298 607.121, 288.680 604.409, 257 600.010 C 245.175 598.368, 233.813 596.788, 231.750 596.500 C 228.317 596.021, 228 596.178, 228 598.366 M 335.250 612.031 C 333.619 612.687, 333 613.759, 333 615.929 C 333 619.372, 334.072 619.795, 349.500 622.438 C 354.450 623.286, 371.325 626.705, 387 630.037 C 460.948 645.753, 471.577 647.069, 488.250 642.575 C 494.881 640.788, 502.313 636.446, 501.736 634.696 C 501.482 633.926, 496.562 633.098, 487.921 632.372 C 466.510 630.572, 428.898 624.796, 397.500 618.488 C 362.426 611.440, 341.993 609.321, 335.250 612.031" stroke="none" fill="#e8f0f0" fill-rule="evenodd"/>
    </g>
  </g>

  <circle cx="250" cy="250" r="245" fill="none" stroke="#c8a84a" stroke-width="3"/>
  <circle cx="250" cy="250" r="236" fill="none" stroke="#c8a84a" stroke-width="0.8" opacity="0.4"/>
</svg>
